<svg width="742" height="720" viewBox="0 0 742 720" fill="none" xmlns="http://www.w3.org/2000/svg">
<path fill-rule="evenodd" clip-rule="evenodd" d="M180.87 87.4446C84.529 135.541 4.21375 177.177 2.39944 179.973C0.580683 182.769 -0.42231 265.321 0.17057 363.423L1.24489 541.791L177.326 630.542C318.788 701.844 356.911 719.289 371.238 719.275C385.48 719.262 424.165 701.684 563.451 631.92C659.36 583.886 739.091 541.3 740.629 537.292C745.394 524.864 735.293 513.314 707.303 499.179L680.396 485.592L532.506 559.4C433.9 608.607 379.859 633.204 370.36 633.204C360.86 633.204 306.944 608.67 208.766 559.677L61.4245 486.149V448.197C61.4245 426.467 63.2878 410.245 65.7797 410.245C68.1735 410.245 134.478 442.351 213.126 481.592C300.747 525.31 361.212 552.939 369.272 552.939C385.917 552.939 736.693 378.099 740.629 367.842C745.381 355.455 735.32 343.879 707.682 329.922L681.154 316.526L534.021 390.138C420.928 446.725 382.962 463.755 369.892 463.755C356.826 463.755 319.417 446.984 208.272 391.293L63.6533 318.832L62.365 279.814C61.5627 255.525 62.7886 240.796 65.6059 240.796C68.0977 240.796 134.478 272.902 213.126 312.143C308.29 359.624 360.887 383.49 370.382 383.49C380.002 383.49 441.933 354.826 560.706 295.394C734.624 208.378 736.791 207.129 738.164 192.931L739.555 178.559L560.772 89.2773C451.286 34.6033 376.962 0 369.013 0C361.074 0 287.994 33.9656 180.87 87.4446Z" fill="white"/>
<g filter="url(#filter0_d_1142_32)">
<path d="M444.559 240.579L295.598 144.976L233.755 176.907L205.983 159.082L364.323 77.3298L392.095 95.154L330.252 127.084L479.212 222.687L444.559 240.579Z" fill="#3D97F0"/>
</g>
<defs>
<filter id="filter0_d_1142_32" x="174.982" y="65.3298" width="385.073" height="245.179" filterUnits="userSpaceOnUse" color-interpolation-filters="sRGB">
<feFlood flood-opacity="0" result="BackgroundImageFix"/>
<feColorMatrix in="SourceAlpha" type="matrix" values="0 0 0 0 0 0 0 0 0 0 0 0 0 0 0 0 0 0 127 0" result="hardAlpha"/>
<feOffset dx="-6" dy="13"/>
<feGaussianBlur stdDeviation="12.5"/>
<feComposite in2="hardAlpha" operator="out"/>
<feColorMatrix type="matrix" values="0 0 0 0 0 0 0 0 0 0 0 0 0 0 0 0 0 0 0.08 0"/>
<feBlend mode="normal" in2="BackgroundImageFix" result="effect1_dropShadow_1142_32"/>
<feBlend mode="normal" in="SourceGraphic" in2="effect1_dropShadow_1142_32" result="shape"/>
</filter>
</defs>
</svg>
